<svg width="20" height="21" viewBox="0 0 20 21" fill="none" xmlns="http://www.w3.org/2000/svg">
<path d="M1.875 6.41748C1.875 13.3208 7.47167 18.9175 14.375 18.9175H16.25C16.7473 18.9175 17.2242 18.7199 17.5758 18.3683C17.9275 18.0167 18.125 17.5398 18.125 17.0425V15.8991C18.125 15.4691 17.8325 15.0941 17.415 14.99L13.7292 14.0683C13.3625 13.9766 12.9775 14.1141 12.7517 14.4158L11.9433 15.4933C11.7083 15.8066 11.3025 15.945 10.935 15.81C9.57073 15.3084 8.33179 14.5163 7.30398 13.4885C6.27618 12.4607 5.48406 11.2217 4.9825 9.85748C4.8475 9.48998 4.98583 9.08415 5.29917 8.84915L6.37667 8.04081C6.67917 7.81498 6.81583 7.42915 6.72417 7.06331L5.8025 3.37748C5.75178 3.17473 5.63477 2.99473 5.47004 2.86609C5.30532 2.73746 5.10234 2.66755 4.89333 2.66748H3.75C3.25272 2.66748 2.77581 2.86502 2.42417 3.21666C2.07254 3.56829 1.875 4.0452 1.875 4.54248V6.41748Z" stroke="#333333" stroke-width="1.5" stroke-linecap="round" stroke-linejoin="round"/>
</svg>
