<svg width="20" height="21" viewBox="0 0 20 21" fill="none" xmlns="http://www.w3.org/2000/svg">
<path d="M7.1875 8.91748C7.1875 9.00036 7.15458 9.07985 7.09597 9.13845C7.03737 9.19706 6.95788 9.22998 6.875 9.22998C6.79212 9.22998 6.71263 9.19706 6.65403 9.13845C6.59542 9.07985 6.5625 9.00036 6.5625 8.91748C6.5625 8.8346 6.59542 8.75512 6.65403 8.69651C6.71263 8.63791 6.79212 8.60498 6.875 8.60498C6.95788 8.60498 7.03737 8.63791 7.09597 8.69651C7.15458 8.75512 7.1875 8.8346 7.1875 8.91748ZM7.1875 8.91748H6.875M10.3125 8.91748C10.3125 9.00036 10.2796 9.07985 10.221 9.13845C10.1624 9.19706 10.0829 9.22998 10 9.22998C9.91712 9.22998 9.83763 9.19706 9.77903 9.13845C9.72042 9.07985 9.6875 9.00036 9.6875 8.91748C9.6875 8.8346 9.72042 8.75512 9.77903 8.69651C9.83763 8.63791 9.91712 8.60498 10 8.60498C10.0829 8.60498 10.1624 8.63791 10.221 8.69651C10.2796 8.75512 10.3125 8.8346 10.3125 8.91748ZM10.3125 8.91748H10M13.4375 8.91748C13.4375 9.00036 13.4046 9.07985 13.346 9.13845C13.2874 9.19706 13.2079 9.22998 13.125 9.22998C13.0421 9.22998 12.9626 9.19706 12.904 9.13845C12.8454 9.07985 12.8125 9.00036 12.8125 8.91748C12.8125 8.8346 12.8454 8.75512 12.904 8.69651C12.9626 8.63791 13.0421 8.60498 13.125 8.60498C13.2079 8.60498 13.2874 8.63791 13.346 8.69651C13.4046 8.75512 13.4375 8.8346 13.4375 8.91748ZM13.4375 8.91748H13.125M1.875 11.4258C1.875 12.7592 2.81083 13.9208 4.13083 14.115C5.03667 14.2483 5.95167 14.3508 6.875 14.4225V18.2925L10.3617 14.8066C10.5343 14.6347 10.7664 14.5356 11.01 14.53C12.6363 14.49 14.2588 14.3514 15.8683 14.115C17.1892 13.9208 18.125 12.76 18.125 11.425V6.40998C18.125 5.07498 17.1892 3.91415 15.8692 3.71998C13.9258 3.43474 11.9642 3.29186 10 3.29248C8.00667 3.29248 6.04667 3.43832 4.13083 3.71998C2.81083 3.91415 1.875 5.07582 1.875 6.40998V11.425V11.4258Z" stroke="black" stroke-width="1.5" stroke-linecap="round" stroke-linejoin="round"/>
</svg>
