<svg width="50" height="46" viewBox="0 0 50 46" fill="none" xmlns="http://www.w3.org/2000/svg">
<g clip-path="url(#clip0_140_1737)">
<path d="M32.2721 42.5726H18.0548C17.6087 42.5726 17.1677 42.4783 16.761 42.2961C16.3543 42.1138 15.9911 41.8478 15.6954 41.5155C15.3998 41.1832 15.1784 40.7923 15.046 40.3686C14.9136 39.9449 14.8732 39.4981 14.9273 39.0577L17.2472 20.223C17.3819 19.1256 17.9159 18.1152 18.7483 17.3826C19.5807 16.6499 20.654 16.2456 21.7655 16.2461H28.5614C29.673 16.2456 30.7462 16.6499 31.5786 17.3826C32.411 18.1152 32.945 19.1256 33.0797 20.223L35.3996 39.0577C35.4537 39.4981 35.4133 39.9449 35.2809 40.3686C35.1485 40.7923 34.9271 41.1832 34.6315 41.5155C34.3359 41.8478 33.9727 42.1138 33.5659 42.2961C33.1592 42.4783 32.7182 42.5726 32.2721 42.5726Z" fill="#F1635F"/>
<path d="M33.0797 20.223C32.945 19.1256 32.411 18.1152 31.5786 17.3826C30.7462 16.6499 29.6729 16.2456 28.5614 16.2461H24.9721V42.5726H32.2721C32.7182 42.5726 33.1592 42.4783 33.5659 42.2961C33.9727 42.1138 34.3358 41.8478 34.6315 41.5155C34.9271 41.1832 35.1485 40.7923 35.2809 40.3686C35.4133 39.9449 35.4537 39.4981 35.3996 39.0577L33.0797 20.223Z" fill="#EF3F32"/>
<path d="M17.6906 35.0154H17.651C17.5649 35.0049 17.4866 34.9608 17.4331 34.8929C17.3797 34.825 17.3555 34.7387 17.366 34.6531L17.7196 31.7656C17.7315 31.6801 17.7765 31.6025 17.845 31.5496C17.9136 31.4966 18.0002 31.4724 18.0865 31.4821C18.1725 31.4926 18.2509 31.5366 18.3043 31.6046C18.3578 31.6725 18.3819 31.7587 18.3715 31.8443L18.0152 34.7319C18.0049 34.8103 17.9663 34.8823 17.9066 34.9345C17.8469 34.9866 17.7701 35.0154 17.6906 35.0154Z" fill="white"/>
<path d="M25.1648 34.8369C28.8 34.8369 31.7469 31.9057 31.7469 28.29C31.7469 24.6743 28.8 21.7432 25.1648 21.7432C21.5295 21.7432 18.5826 24.6743 18.5826 28.29C18.5826 31.9057 21.5295 34.8369 25.1648 34.8369Z" fill="#F37F80"/>
<path d="M18.4216 29.7413H18.382C18.296 29.7308 18.2176 29.6868 18.1642 29.6188C18.1107 29.5509 18.0866 29.4647 18.097 29.3791L19.2292 20.1914C19.2329 20.1478 19.2454 20.1053 19.2659 20.0666C19.2865 20.0279 19.3147 19.9937 19.3488 19.9661C19.383 19.9384 19.4224 19.918 19.4647 19.9058C19.5069 19.8937 19.5513 19.8902 19.595 19.8955C19.6387 19.9008 19.6808 19.9148 19.719 19.9367C19.7571 19.9585 19.7904 19.9879 19.8168 20.0228C19.8433 20.0578 19.8624 20.0978 19.873 20.1403C19.8836 20.1828 19.8854 20.2269 19.8785 20.2702L18.7463 29.4578C18.736 29.5362 18.6974 29.6082 18.6377 29.6604C18.5779 29.7126 18.5011 29.7413 18.4216 29.7413Z" fill="white"/>
<path d="M24.9721 21.751V34.8263C25.0354 34.8263 25.0988 34.8263 25.1648 34.8263C26.888 34.792 28.529 34.087 29.7355 32.8627C30.942 31.6385 31.6177 29.9925 31.6177 28.2781C31.6177 26.5638 30.942 24.9178 29.7355 23.6936C28.529 22.4693 26.888 21.7643 25.1648 21.73C25.0988 21.7405 25.0354 21.7484 24.9721 21.751Z" fill="#F1635F"/>
<path d="M37.8646 45.5891H12.465C12.3489 45.5907 12.2339 45.5669 12.1281 45.5194C12.0223 45.4719 11.9283 45.4019 11.8528 45.3142C11.7772 45.2265 11.722 45.1234 11.6909 45.0121C11.6599 44.9009 11.6539 44.7842 11.6732 44.6704L12.2407 41.2237C12.3651 40.4915 12.7455 39.8266 13.3148 39.3464C13.8841 38.8661 14.6057 38.6012 15.3523 38.5986H34.9588C35.7054 38.6012 36.427 38.8661 36.9963 39.3464C37.5656 39.8266 37.946 40.4915 38.0704 41.2237L38.6379 44.6704C38.657 44.7827 38.6513 44.8978 38.6214 45.0077C38.5914 45.1176 38.5378 45.2198 38.4643 45.3071C38.3908 45.3945 38.2991 45.4649 38.1956 45.5136C38.092 45.5623 37.9791 45.5881 37.8646 45.5891Z" fill="#56585B"/>
<path d="M38.0783 41.2237C37.9539 40.4915 37.5735 39.8266 37.0042 39.3464C36.4348 38.8661 35.7133 38.6012 34.9667 38.5986H24.9721V45.5917H37.8646C37.9806 45.5934 38.0957 45.5696 38.2015 45.5221C38.3073 45.4745 38.4013 45.4045 38.4768 45.3168C38.5523 45.2291 38.6076 45.126 38.6386 45.0148C38.6696 44.9035 38.6757 44.7868 38.6563 44.673L38.0783 41.2237Z" fill="#3E3F41"/>
<path d="M25.1648 0.454106C25.0512 0.45376 24.9387 0.475707 24.8337 0.51869C24.7287 0.561674 24.6332 0.62485 24.5528 0.704593C24.4724 0.784336 24.4086 0.87908 24.3651 0.983395C24.3215 1.08771 24.2991 1.19955 24.2991 1.31249V10.8703C24.2926 10.9872 24.3102 11.1041 24.3507 11.2141C24.3912 11.324 24.4538 11.4245 24.5347 11.5096C24.6156 11.5946 24.7131 11.6623 24.8212 11.7086C24.9293 11.7549 25.0457 11.7788 25.1634 11.7788C25.2812 11.7788 25.3976 11.7549 25.5057 11.7086C25.6138 11.6623 25.7113 11.5946 25.7922 11.5096C25.8731 11.4245 25.9357 11.324 25.9762 11.2141C26.0167 11.1041 26.0343 10.9872 26.0278 10.8703V1.30724C26.0274 1.19486 26.0048 1.08365 25.9613 0.979955C25.9177 0.87626 25.8541 0.782116 25.7739 0.702895C25.6938 0.623673 25.5987 0.560929 25.4942 0.518242C25.3897 0.475554 25.2778 0.45376 25.1648 0.454106Z" fill="#EF3F32"/>
<path d="M48.9941 24.1504H39.3848C39.1552 24.1504 38.935 24.2411 38.7726 24.4026C38.6103 24.564 38.5191 24.783 38.5191 25.0114C38.5191 25.2398 38.6103 25.4588 38.7726 25.6202C38.935 25.7817 39.1552 25.8724 39.3848 25.8724H48.9941C49.2236 25.8724 49.4438 25.7817 49.6062 25.6202C49.7685 25.4588 49.8597 25.2398 49.8597 25.0114C49.8597 24.783 49.7685 24.564 49.6062 24.4026C49.4438 24.2411 49.2236 24.1504 48.9941 24.1504Z" fill="#EF3F32"/>
<path d="M10.9422 24.1504H1.32757C1.09798 24.1504 0.877802 24.2411 0.71546 24.4026C0.553118 24.564 0.461914 24.783 0.461914 25.0114C0.461914 25.2398 0.553118 25.4588 0.71546 25.6202C0.877802 25.7817 1.09798 25.8724 1.32757 25.8724H10.9369C11.1665 25.8724 11.3866 25.7817 11.549 25.6202C11.7113 25.4588 11.8025 25.2398 11.8025 25.0114C11.8025 24.783 11.7113 24.564 11.549 24.4026C11.3866 24.2411 11.1665 24.1504 10.9369 24.1504H10.9422Z" fill="#EF3F32"/>
<path d="M38.8041 11.4558C38.724 11.3758 38.6287 11.3124 38.5239 11.2692C38.4191 11.2259 38.3067 11.2036 38.1932 11.2036C38.0797 11.2036 37.9673 11.2259 37.8624 11.2692C37.7576 11.3124 37.6623 11.3758 37.5822 11.4558L34.6078 14.4011C34.4562 14.5646 34.3741 14.7802 34.3788 15.0026C34.3834 15.225 34.4745 15.437 34.6328 15.5942C34.7911 15.7513 35.0045 15.8414 35.2281 15.8455C35.4517 15.8497 35.6683 15.7676 35.8324 15.6164L38.8041 12.6711C38.8845 12.5914 38.9482 12.4967 38.9917 12.3924C39.0352 12.2881 39.0576 12.1764 39.0576 12.0635C39.0576 11.9506 39.0352 11.8388 38.9917 11.7345C38.9482 11.6302 38.8845 11.5355 38.8041 11.4558Z" fill="#EF3F32"/>
<path d="M42.367 7.90129C42.2866 7.82129 42.1912 7.75782 42.0861 7.71452C41.9811 7.67121 41.8685 7.64893 41.7547 7.64893C41.641 7.64893 41.5284 7.67121 41.4234 7.71452C41.3183 7.75782 41.2228 7.82129 41.1424 7.90129L40.253 8.78856C40.091 8.94973 40 9.16832 40 9.39625C40 9.62418 40.091 9.84278 40.253 10.004C40.4151 10.1651 40.6349 10.2557 40.864 10.2557C41.0932 10.2557 41.3129 10.1651 41.475 10.004L42.367 9.11669C42.5287 8.95531 42.6194 8.73679 42.6194 8.50899C42.6194 8.28119 42.5287 8.06267 42.367 7.90129Z" fill="#EF3F32"/>
<path d="M12.7579 11.4553C12.5938 11.3042 12.3772 11.2221 12.1536 11.2262C11.93 11.2304 11.7166 11.3205 11.5583 11.4776C11.4 11.6347 11.309 11.8467 11.3043 12.0692C11.2996 12.2916 11.3817 12.5072 11.5333 12.6707L14.4971 15.616C14.6592 15.7772 14.879 15.8677 15.1081 15.8677C15.3373 15.8677 15.557 15.7772 15.7191 15.616C15.8811 15.4548 15.9722 15.2362 15.9722 15.0083C15.9722 14.7804 15.8811 14.5618 15.7191 14.4006L12.7579 11.4553Z" fill="#EF3F32"/>
<path d="M9.40879 8.12447C9.24435 7.97367 9.02761 7.89204 8.80399 7.89667C8.58037 7.9013 8.36723 7.99185 8.20925 8.14933C8.05126 8.3068 7.96069 8.51899 7.95651 8.74142C7.95234 8.96385 8.03488 9.17926 8.18685 9.34249L9.07626 10.2271C9.24037 10.3783 9.45694 10.4604 9.68057 10.4562C9.90419 10.4521 10.1175 10.362 10.2759 10.2048C10.4342 10.0477 10.5252 9.83572 10.5299 9.6133C10.5345 9.39088 10.4525 9.1753 10.3008 9.01174L9.40879 8.12447Z" fill="#EF3F32"/>
</g>
<defs>
<clipPath id="clip0_140_1737">
<rect width="49.3925" height="45.1402" fill="white" transform="translate(0.467194 0.44873)"/>
</clipPath>
</defs>
</svg>
