<svg width="29" height="32" viewBox="0 0 29 32" fill="none" xmlns="http://www.w3.org/2000/svg">
<path d="M14.379 20.1334C16.4857 20.1334 18.1936 18.2828 18.1936 16C18.1936 13.7173 16.4857 11.8667 14.379 11.8667C12.2723 11.8667 10.5645 13.7173 10.5645 16C10.5645 18.2828 12.2723 20.1334 14.379 20.1334Z" fill="#D9D9D9"/>
<path d="M10.8029 3.0835L8.62141 5.66683H4.8426C3.53134 5.66683 2.4585 6.82933 2.4585 8.25016V23.7502C2.4585 25.171 3.53134 26.3335 4.8426 26.3335H23.9154C25.2267 26.3335 26.2995 25.171 26.2995 23.7502V8.25016C26.2995 6.82933 25.2267 5.66683 23.9154 5.66683H20.1366L17.9552 3.0835H10.8029ZM14.379 22.4585C11.089 22.4585 8.41876 19.5652 8.41876 16.0002C8.41876 12.4352 11.089 9.54183 14.379 9.54183C17.6691 9.54183 20.3393 12.4352 20.3393 16.0002C20.3393 19.5652 17.6691 22.4585 14.379 22.4585Z" fill="#D9D9D9"/>
</svg>
