<svg width="19" height="20" viewBox="0 0 19 20" fill="none" xmlns="http://www.w3.org/2000/svg">
<path d="M0.892756 0.0296783C0.772911 -0.00798105 0.6459 -0.00983475 0.525163 0.0243134C0.404426 0.0584615 0.294453 0.127341 0.206883 0.223664C0.119313 0.319986 0.0574027 0.440168 0.0277032 0.571493C-0.00199619 0.702817 0.00162019 0.840399 0.0381695 0.969678L2.28261 8.87468H10.1419C10.3254 8.87468 10.5015 8.9537 10.6313 9.09435C10.7611 9.235 10.834 9.42577 10.834 9.62468C10.834 9.82359 10.7611 10.0144 10.6313 10.155C10.5015 10.2957 10.3254 10.3747 10.1419 10.3747H2.28261L0.0381695 18.2797C0.00162019 18.409 -0.00199619 18.5465 0.0277032 18.6779C0.0574027 18.8092 0.119313 18.9294 0.206883 19.0257C0.294453 19.122 0.404426 19.1909 0.525163 19.225C0.6459 19.2592 0.772911 19.2573 0.892756 19.2197C6.99757 17.296 12.7545 14.257 17.9153 10.2337C18.0044 10.1642 18.0771 10.0728 18.1272 9.96687C18.1773 9.86098 18.2034 9.74368 18.2034 9.62468C18.2034 9.50568 18.1773 9.38838 18.1272 9.28249C18.0771 9.17659 18.0044 9.08514 17.9153 9.01568C12.7545 4.99233 6.99758 1.95333 0.892756 0.0296783Z" fill="#D9D9D9"/>
</svg>
